<?xml version="1.0" encoding="UTF-8"?>
<svg xmlns="http://www.w3.org/2000/svg" viewBox="0 0 1024 1024" width="1024" height="1024">
  <defs>
    <linearGradient id="appRedGradient" x1="0%" y1="0%" x2="100%" y2="100%">
      <stop offset="0%" style="stop-color:#E53E3E"/>
      <stop offset="50%" style="stop-color:#DC143C"/>
      <stop offset="100%" style="stop-color:#C53030"/>
    </linearGradient>
    <linearGradient id="appGoldGradient" x1="0%" y1="0%" x2="100%" y2="100%">
      <stop offset="0%" style="stop-color:#FFD700"/>
      <stop offset="50%" style="stop-color:#F6E05E"/>
      <stop offset="100%" style="stop-color:#D69E2E"/>
    </linearGradient>
    <filter id="appShadow" x="-50%" y="-50%" width="200%" height="200%">
      <feDropShadow dx="0" dy="16" stdDeviation="32" flood-color="#000000" flood-opacity="0.3"/>
    </filter>
  </defs>
  
  <!-- Rounded rectangle background for app icon -->
  <rect x="0" y="0" width="1024" height="1024" rx="220" ry="220" fill="url(#appRedGradient)"/>
  
  <!-- Main circular emblem -->
  <circle cx="512" cy="512" r="400" fill="url(#appRedGradient)" filter="url(#appShadow)" stroke="#FFFFFF" stroke-width="8" opacity="0.95"/>
  
  <!-- Turkish tulip/lale design scaled for app icon -->
  <g transform="translate(412, 320) scale(4)">
    <!-- Main tulip petals -->
    <path d="M25 50 C20 35, 15 25, 20 15 C25 20, 25 30, 25 40 Z" fill="#FFFFFF"/>
    <path d="M25 50 C30 35, 35 25, 30 15 C25 20, 25 30, 25 40 Z" fill="#FFFFFF"/>
    <path d="M25 40 C22 30, 18 23, 22 17 C24 21, 25 27, 25 40 Z" fill="#FFFFFF" opacity="0.9"/>
    <path d="M25 40 C28 30, 32 23, 28 17 C26 21, 25 27, 25 40 Z" fill="#FFFFFF" opacity="0.9"/>
    
    <!-- Central detail -->
    <ellipse cx="25" cy="30" rx="3" ry="12" fill="#FFFFFF" opacity="0.7"/>
    
    <!-- Stem -->
    <rect x="24" y="40" width="2" height="12" fill="#FFFFFF" opacity="0.95"/>
  </g>
  
  <!-- Crescent moon scaled for app icon -->
  <g transform="translate(300, 280) scale(3)">
    <path d="M15 25 C12 20, 12 15, 15 10 C13 15, 13 20, 15 25 Z" fill="url(#appGoldGradient)"/>
    <circle cx="17" cy="12" r="2.5" fill="url(#appGoldGradient)"/>
  </g>
  
  <!-- Decorative stars for app icon -->
  <g transform="translate(680, 280) scale(2)">
    <polygon points="15,0 18,9 30,9 21,15 24,27 15,21 6,27 9,15 0,9 12,9" fill="url(#appGoldGradient)" opacity="0.8"/>
  </g>
  <g transform="translate(320, 750) scale(1.5)">
    <polygon points="10,0 12,6 20,6 14,10 16,18 10,14 4,18 6,10 0,6 8,6" fill="url(#appGoldGradient)" opacity="0.6"/>
  </g>
  <g transform="translate(720, 650) scale(1.2)">
    <polygon points="8,0 10,5 16,5 11,8 13,15 8,11 3,15 5,8 0,5 6,5" fill="url(#appGoldGradient)" opacity="0.7"/>
  </g>
  
  <!-- Subtle geometric pattern -->
  <g transform="translate(200, 200) scale(1.5)" opacity="0.1">
    <polygon points="0,15 10,0 20,15 10,30" fill="#FFFFFF"/>
  </g>
  <g transform="translate(800, 800) scale(1.5)" opacity="0.1">
    <polygon points="0,15 10,0 20,15 10,30" fill="#FFFFFF"/>
  </g>
  
  <!-- Outer ring for definition -->
  <circle cx="512" cy="512" r="400" fill="none" stroke="#FFFFFF" stroke-width="4" opacity="0.2"/>
</svg>
