<?xml version="1.0" encoding="UTF-8"?>
<svg xmlns="http://www.w3.org/2000/svg" viewBox="0 0 180 140" width="180" height="140">
  <defs>
    <linearGradient id="redGradient" x1="0%" y1="0%" x2="100%" y2="100%">
      <stop offset="0%" style="stop-color:#E53E3E"/>
      <stop offset="100%" style="stop-color:#C53030"/>
    </linearGradient>
    <linearGradient id="goldGradient" x1="0%" y1="0%" x2="100%" y2="100%">
      <stop offset="0%" style="stop-color:#F6E05E"/>
      <stop offset="50%" style="stop-color:#ECC94B"/>
      <stop offset="100%" style="stop-color:#D69E2E"/>
    </linearGradient>
  </defs>
  
  <!-- Circular background -->
  <circle cx="90" cy="45" r="40" fill="url(#redGradient)" />
  
  <!-- Turkish tulip/lale design -->
  <g transform="translate(70, 15)">
    <!-- Main tulip petals -->
    <path d="M20 50 C16 35, 12 25, 16 15 C20 20, 20 30, 20 40 Z" fill="#FFFFFF"/>
    <path d="M20 50 C24 35, 28 25, 24 15 C20 20, 20 30, 20 40 Z" fill="#FFFFFF"/>
    <path d="M20 40 C18 30, 15 23, 18 17 C19 21, 20 27, 20 40 Z" fill="#FFFFFF" opacity="0.8"/>
    <path d="M20 40 C22 30, 25 23, 22 17 C21 21, 20 27, 20 40 Z" fill="#FFFFFF" opacity="0.8"/>
    
    <!-- Central detail -->
    <ellipse cx="20" cy="30" rx="2.5" ry="10" fill="#FFFFFF" opacity="0.6"/>
    
    <!-- Stem -->
    <rect x="19.5" y="40" width="1.5" height="7" fill="#FFFFFF" opacity="0.9"/>
  </g>
  
  <!-- Crescent moon -->
  <g transform="translate(60, 10)">
    <path d="M12 20 C10 16, 10 12, 12 8 C11 12, 11 16, 12 20 Z" fill="url(#goldGradient)"/>
    <circle cx="13.5" cy="10" r="1.5" fill="url(#goldGradient)"/>
  </g>
  
  <!-- Text -->
  <text x="90" y="105" font-family="Arial, sans-serif" font-size="20" font-weight="700" fill="#2D3748" text-anchor="middle">Travel</text>
  <text x="90" y="125" font-family="Arial, sans-serif" font-size="20" font-weight="700" fill="#E53E3E" text-anchor="middle">Turkey</text>
</svg>
