<?xml version="1.0" encoding="UTF-8"?>
<svg xmlns="http://www.w3.org/2000/svg" viewBox="0 0 100 100" width="100" height="100">
  <defs>
    <linearGradient id="redGradient" x1="0%" y1="0%" x2="100%" y2="100%">
      <stop offset="0%" style="stop-color:#E53E3E"/>
      <stop offset="100%" style="stop-color:#C53030"/>
    </linearGradient>
    <linearGradient id="goldGradient" x1="0%" y1="0%" x2="100%" y2="100%">
      <stop offset="0%" style="stop-color:#F6E05E"/>
      <stop offset="50%" style="stop-color:#ECC94B"/>
      <stop offset="100%" style="stop-color:#D69E2E"/>
    </linearGradient>
    <filter id="shadow" x="-20%" y="-20%" width="140%" height="140%">
      <feDropShadow dx="0" dy="2" stdDeviation="4" flood-color="#000000" flood-opacity="0.2"/>
    </filter>
  </defs>
  
  <!-- Circular background with shadow -->
  <circle cx="50" cy="50" r="45" fill="url(#redGradient)" filter="url(#shadow)" />
  
  <!-- Turkish tulip/lale design -->
  <g transform="translate(30, 20)">
    <!-- Main tulip petals -->
    <path d="M20 50 C16 35, 12 25, 16 15 C20 20, 20 30, 20 40 Z" fill="#FFFFFF"/>
    <path d="M20 50 C24 35, 28 25, 24 15 C20 20, 20 30, 20 40 Z" fill="#FFFFFF"/>
    <path d="M20 40 C18 30, 15 23, 18 17 C19 21, 20 27, 20 40 Z" fill="#FFFFFF" opacity="0.8"/>
    <path d="M20 40 C22 30, 25 23, 22 17 C21 21, 20 27, 20 40 Z" fill="#FFFFFF" opacity="0.8"/>
    
    <!-- Central detail -->
    <ellipse cx="20" cy="30" rx="2.5" ry="10" fill="#FFFFFF" opacity="0.6"/>
    
    <!-- Stem -->
    <rect x="19.5" y="40" width="1.5" height="10" fill="#FFFFFF" opacity="0.9"/>
  </g>
  
  <!-- Crescent moon -->
  <g transform="translate(20, 15)">
    <path d="M12 20 C10 16, 10 12, 12 8 C11 12, 11 16, 12 20 Z" fill="url(#goldGradient)"/>
    <circle cx="13.5" cy="10" r="1.5" fill="url(#goldGradient)"/>
  </g>
  
  <!-- Optional decorative stars -->
  <g transform="translate(70, 25)">
    <polygon points="5,0 6,3 10,3 7,5 8,9 5,7 2,9 3,5 0,3 4,3" fill="url(#goldGradient)" opacity="0.7"/>
  </g>
</svg>
