<?xml version="1.0" encoding="UTF-8"?>
<svg xmlns="http://www.w3.org/2000/svg" viewBox="0 0 400 100" width="400" height="100">
  <defs>
    <linearGradient id="redGradient" x1="0%" y1="0%" x2="100%" y2="100%">
      <stop offset="0%" style="stop-color:#E53E3E"/>
      <stop offset="100%" style="stop-color:#C53030"/>
    </linearGradient>
    <linearGradient id="goldGradient" x1="0%" y1="0%" x2="100%" y2="100%">
      <stop offset="0%" style="stop-color:#F6E05E"/>
      <stop offset="50%" style="stop-color:#ECC94B"/>
      <stop offset="100%" style="stop-color:#D69E2E"/>
    </linearGradient>
  </defs>
  
  <!-- Circular background -->
  <circle cx="50" cy="50" r="45" fill="url(#redGradient)" />
  
  <!-- Turkish tulip/lale design -->
  <g transform="translate(25, 20)">
    <!-- Main tulip petals -->
    <path d="M25 55 C20 40, 15 30, 20 20 C25 25, 25 35, 25 45 Z" fill="#FFFFFF"/>
    <path d="M25 55 C30 40, 35 30, 30 20 C25 25, 25 35, 25 45 Z" fill="#FFFFFF"/>
    <path d="M25 45 C22 35, 18 28, 22 22 C24 26, 25 32, 25 45 Z" fill="#FFFFFF" opacity="0.8"/>
    <path d="M25 45 C28 35, 32 28, 28 22 C26 26, 25 32, 25 45 Z" fill="#FFFFFF" opacity="0.8"/>
    
    <!-- Central detail -->
    <ellipse cx="25" cy="35" rx="3" ry="12" fill="#FFFFFF" opacity="0.6"/>
    
    <!-- Stem -->
    <rect x="24" y="45" width="2" height="8" fill="#FFFFFF" opacity="0.9"/>
  </g>
  
  <!-- Crescent moon -->
  <g transform="translate(15, 15)">
    <path d="M15 25 C12 20, 12 15, 15 10 C13 15, 13 20, 15 25 Z" fill="url(#goldGradient)"/>
    <circle cx="17" cy="12" r="2" fill="url(#goldGradient)"/>
  </g>
  
  <!-- Text -->
  <text x="110" y="40" font-family="Arial, sans-serif" font-size="32" font-weight="700" fill="#2D3748">Travel</text>
  <text x="250" y="40" font-family="Arial, sans-serif" font-size="32" font-weight="700" fill="#E53E3E">Turkey</text>
</svg>
